<svg id="46200f55-8df6-4393-836b-2d9ca36e0ebc" data-name="Capa 1" xmlns="http://www.w3.org/2000/svg" viewBox="0 0 500 500"><title>beefi-yellow-id</title><path d="M154.41,400.25h11.81a34.37,34.37,0,0,1,5.23.29,7.72,7.72,0,0,1,3.08,1.22,7.58,7.58,0,0,1,2.27,2.47,6.69,6.69,0,0,1,.91,3.46,7,7,0,0,1-4.15,6.41,7.8,7.8,0,0,1,4.15,2.68,7.12,7.12,0,0,1,1.45,4.46,8.76,8.76,0,0,1-.94,3.92,7.89,7.89,0,0,1-2.56,3,8.41,8.41,0,0,1-4,1.4q-1.49.16-7.2.2H154.41Zm6,4.92V412h3.91q3.49,0,4.33-.1a4,4,0,0,0,2.41-1.06,3.12,3.12,0,0,0,.88-2.31,3.24,3.24,0,0,0-.76-2.23,3.42,3.42,0,0,0-2.25-1q-.89-.1-5.1-.1Zm0,11.75v7.9h5.52a27,27,0,0,0,4.09-.18,3.69,3.69,0,0,0,2.17-1.18,3.63,3.63,0,0,0,.84-2.51,3.87,3.87,0,0,0-.64-2.26,3.65,3.65,0,0,0-1.86-1.35,20.24,20.24,0,0,0-5.29-.42Z" style="fill:#fff"/><path d="M196.55,423l5.64.95a9.26,9.26,0,0,1-3.44,4.73,10.1,10.1,0,0,1-5.88,1.62q-5.58,0-8.26-3.65a12.26,12.26,0,0,1-2.12-7.38q0-5.32,2.78-8.34a9.17,9.17,0,0,1,7-3,9.51,9.51,0,0,1,7.54,3.16q2.76,3.15,2.64,9.67H188.31a5.73,5.73,0,0,0,1.37,3.92,4.29,4.29,0,0,0,3.27,1.4,3.48,3.48,0,0,0,2.24-.72A4.48,4.48,0,0,0,196.55,423Zm.32-5.73a5.45,5.45,0,0,0-1.27-3.74,4.09,4.09,0,0,0-6,.07,5.22,5.22,0,0,0-1.19,3.67Z" style="fill:#fff"/><path d="M219.51,423l5.64.95a9.26,9.26,0,0,1-3.44,4.73,10.1,10.1,0,0,1-5.88,1.62q-5.58,0-8.26-3.65a12.26,12.26,0,0,1-2.12-7.38q0-5.32,2.78-8.34a9.17,9.17,0,0,1,7-3,9.51,9.51,0,0,1,7.54,3.16q2.76,3.15,2.64,9.67H211.27a5.73,5.73,0,0,0,1.37,3.92,4.29,4.29,0,0,0,3.27,1.4,3.48,3.48,0,0,0,2.24-.72A4.48,4.48,0,0,0,219.51,423Zm.32-5.73a5.45,5.45,0,0,0-1.27-3.74,4.09,4.09,0,0,0-6,.07,5.22,5.22,0,0,0-1.19,3.67Z" style="fill:#fff"/><path d="M316,371.5H277.68a29.64,29.64,0,0,0-29.55,29.55v14.19h-.06s-6.46,38.95-20.86,38.95h50v0l.45,0H316a29.64,29.64,0,0,0,29.55-29.55V401.05A29.64,29.64,0,0,0,316,371.5Zm-18.37,33.75H283.37v7h12.34v5H283.37V429.8h-6V400.25h20.26Zm10.54,24.55h-5.66V408.39h5.66Zm0-24.31h-5.66v-5.24h5.66Z" style="fill:#e5b136"/><circle cx="229.88" cy="120.69" r="7.01" style="fill:#e5b136"/><circle cx="270.12" cy="120.69" r="7.01" style="fill:#e5b136"/><path d="M275.93,143.16a29.13,29.13,0,0,0-51.85,0L250,160.66Z" style="fill:#e5b136"/><path d="M296.35,138.52h-.68L250,164.27l-45.66-25.75h-.68a27.78,27.78,0,0,0,0,55.56h.66L250,169.29l45.69,24.79h.66a27.78,27.78,0,0,0,0-55.56ZM203,188.86a22.57,22.57,0,0,1,0-45.13l40.8,23Zm94,0-40.78-22.12,40.8-23a22.57,22.57,0,0,1,0,45.13Z" style="fill:#e5b136"/><path d="M249.94,174.6s30.52,7.88,30.52,31.5H219.54c0-23.63,30.52-31.5,30.52-31.5" style="fill:#e5b136"/><path d="M95.82,331.58a5.7,5.7,0,0,1-3.74-1.39C48.82,292.79,25,242.46,25,188.45c0-53.74,23.62-103.9,66.51-141.24A5.72,5.72,0,0,1,99,55.84C58.67,91,36.44,138.07,36.44,188.45c0,50.63,22.42,97.89,63.12,133.08a5.72,5.72,0,0,1-3.75,10.05Z" style="fill:#e5b136"/><path d="M115.77,295.9a5.14,5.14,0,0,1-3.36-1.25c-32.47-28-50.36-65.69-50.36-106.18,0-40.25,17.7-77.8,49.84-105.73a5.15,5.15,0,1,1,6.76,7.77c-29.85,25.95-46.3,60.74-46.3,98,0,37.45,16.61,72.38,46.78,98.38a5.15,5.15,0,0,1-3.36,9.05Z" style="fill:#e5b136"/><path d="M139.29,275.83a5.13,5.13,0,0,1-3.35-1.24c-26.41-22.65-41-53.23-41-86.11,0-32.63,14.36-63.05,40.44-85.66a5.15,5.15,0,0,1,6.75,7.78c-23.78,20.62-36.88,48.28-36.88,77.88,0,29.83,13.27,57.63,37.36,78.29a5.15,5.15,0,0,1-3.36,9.06Z" style="fill:#e5b136"/><path d="M163.42,258.37a5.12,5.12,0,0,1-3.34-1.23c-21.15-18-32.79-42.4-32.79-68.66,0-26,11.46-50.23,32.26-68.21a5.15,5.15,0,0,1,6.73,7.79c-18.51,16-28.7,37.45-28.7,60.42,0,23.2,10.36,44.8,29.17,60.82a5.15,5.15,0,0,1-3.34,9.07Z" style="fill:#e5b136"/><path d="M404.18,331.58a5.7,5.7,0,0,0,3.74-1.39C451.18,292.79,475,242.46,475,188.45c0-53.74-23.62-103.9-66.51-141.24A5.72,5.72,0,1,0,401,55.84c40.35,35.14,62.58,82.23,62.58,132.61,0,50.63-22.42,97.89-63.12,133.08a5.72,5.72,0,0,0,3.75,10.05Z" style="fill:#e5b136"/><path d="M384.23,295.9a5.14,5.14,0,0,0,3.36-1.25c32.47-28,50.36-65.69,50.36-106.18,0-40.25-17.7-77.8-49.84-105.73a5.15,5.15,0,1,0-6.76,7.77c29.85,25.95,46.3,60.74,46.3,98,0,37.45-16.61,72.38-46.78,98.38a5.15,5.15,0,0,0,3.36,9.05Z" style="fill:#e5b136"/><path d="M360.71,275.83a5.13,5.13,0,0,0,3.35-1.24c26.41-22.65,41-53.23,41-86.11,0-32.63-14.36-63.05-40.44-85.66a5.15,5.15,0,1,0-6.75,7.78c23.78,20.62,36.88,48.28,36.88,77.88,0,29.83-13.27,57.63-37.36,78.29a5.15,5.15,0,0,0,3.36,9.06Z" style="fill:#e5b136"/><path d="M336.58,258.37a5.12,5.12,0,0,0,3.34-1.23c21.15-18,32.79-42.4,32.79-68.66,0-26-11.46-50.23-32.26-68.21a5.15,5.15,0,0,0-6.73,7.79c18.51,16,28.7,37.45,28.7,60.42,0,23.2-10.36,44.8-29.17,60.82a5.15,5.15,0,0,0,3.34,9.07Z" style="fill:#e5b136"/><path d="M280.21,225.48c-8-9.15-18.68-14.19-30.16-14.19s-22.29,5.08-30.27,14.31a2.65,2.65,0,0,0,4,3.47c6.95-8,16.27-12.47,26.25-12.47S269.27,221,276.21,229a2.65,2.65,0,0,0,4-3.48Z" style="fill:#e5b136"/><path d="M272.63,232.44a29.3,29.3,0,0,0-45.25.11,2.17,2.17,0,0,0,3.28,2.83,25,25,0,0,1,38.7-.1,2.16,2.16,0,0,0,1.49.74,2.12,2.12,0,0,0,1.57-.53A2.17,2.17,0,0,0,272.63,232.44Z" style="fill:#e5b136"/><path d="M265.55,239.55a20.12,20.12,0,0,0-31.11.1,1.64,1.64,0,0,0,.18,2.31,1.62,1.62,0,0,0,1.06.4h.13a1.61,1.61,0,0,0,1.12-.57,16.84,16.84,0,0,1,26.15-.08,1.62,1.62,0,0,0,1.12.56,1.6,1.6,0,0,0,1.19-.4,1.63,1.63,0,0,0,.56-1.12A1.61,1.61,0,0,0,265.55,239.55Z" style="fill:#e5b136"/><path d="M254.71,255l.2-.33a24.6,24.6,0,0,0,1.5-2.94c.09-.22.19-.43.28-.65l.07-.22a12.79,12.79,0,0,0,.72-2.81c0-.15,0-.29,0-.44s.06-.48.06-.73,0-.28,0-.42,0-.17,0-.25,0-.13,0-.2a7.51,7.51,0,0,0-.3-1.45s0-.07,0-.1v0a7.47,7.47,0,0,0-.66-1.38c0-.05,0-.12-.08-.17l-.1-.13a7.63,7.63,0,0,0-.92-1.15l0-.05-.11-.08a7.57,7.57,0,0,0-.57-.52,7.43,7.43,0,0,0-.73-.48l-.18-.12a7.56,7.56,0,0,0-1.6-.68l-.26-.07a7.53,7.53,0,0,0-1.6-.25H250v0a7.45,7.45,0,0,0-1.74.18,7.57,7.57,0,0,0-5.74,6.16,8.76,8.76,0,0,0,.15,3.25,19.25,19.25,0,0,0,2.4,5.66,37.66,37.66,0,0,0,3.07,4.38q.51.63,1,1.24c.19.21.42.54.69.63a.66.66,0,0,0,.16,0h0l.17,0a1.05,1.05,0,0,0,.35-.27h0l.15-.17.07-.08.19-.22.09-.11.53-.63q.85-1,1.63-2.15l0-.06c.14-.2.27-.42.41-.62.3-.44.6-.87.88-1.32Zm-3.07-11.75A4,4,0,1,1,251,243,4,4,0,0,1,251.64,243.25Z" style="fill:#e5b136"/></svg>